<?xml version="1.0" encoding="utf-8"?>
<!-- Generator: Adobe Illustrator 23.0.6, SVG Export Plug-In . SVG Version: 6.00 Build 0)  -->
<svg version="1.1" id="图层_1" xmlns="http://www.w3.org/2000/svg" xmlns:xlink="http://www.w3.org/1999/xlink" x="0px" y="0px"
	 viewBox="0 0 1024 1024" style="enable-background:new 0 0 1024 1024;" xml:space="preserve">
<style type="text/css">
	.st0{fill:url(#SVGID_1_);}
	.st1{fill:url(#SVGID_2_);}
	.st2{opacity:0.2;fill:#003FAF;}
	.st3{opacity:0.9;fill:#F2F2F2;}
	.st4{opacity:0.5;}
	.st5{fill:url(#SVGID_3_);}
	.st6{fill:url(#SVGID_4_);}
	.st7{opacity:0.2;fill:#236FFB;}
	.st8{fill:url(#SVGID_5_);}
	.st9{fill:#236FFB;}
</style>
<g>
	<g>
		<g>
			<linearGradient id="SVGID_1_" gradientUnits="userSpaceOnUse" x1="210.1226" y1="432.4802" x2="723.6296" y2="945.9871">
				<stop  offset="0" style="stop-color:#39C2FF"/>
				<stop  offset="1" style="stop-color:#236FFB"/>
			</linearGradient>
			<path class="st0" d="M136,843.1c0,23.7,19.2,43,43,43h602.8c23.7,0,43-19.2,43-43V544.5H136V843.1z"/>
			<linearGradient id="SVGID_2_" gradientUnits="userSpaceOnUse" x1="324.2953" y1="318.3075" x2="837.8022" y2="831.8145">
				<stop  offset="0" style="stop-color:#39C2FF"/>
				<stop  offset="1" style="stop-color:#236FFB"/>
			</linearGradient>
			<path class="st1" d="M781.7,410.6H178.9c-23.7,0-43,19.2-43,43V513h688.7v-59.4C824.7,429.8,805.5,410.6,781.7,410.6z"/>
		</g>
		<circle class="st2" cx="198.7" cy="461.8" r="21.6"/>
		<circle class="st2" cx="258.4" cy="461.8" r="21.6"/>
		<circle class="st2" cx="316.7" cy="461.8" r="21.6"/>
		<path class="st3" d="M453.2,831.3c-1.6,0-3.2-0.2-4.8-0.6c-10-2.6-15.9-12.8-13.3-22.8l52.7-200.3c2.6-10,12.9-15.9,22.8-13.3
			c10,2.6,15.9,12.8,13.3,22.8l-52.7,200.3C469.1,825.8,461.5,831.3,453.2,831.3z"/>
		<path class="st3" d="M397.3,800c-5.2,0-10.3-2.1-14-6.3l-64.9-73.5c-6.5-7.4-6.2-18.6,0.8-25.5l73.5-73.5c7.3-7.3,19.1-7.3,26.4,0
			c7.3,7.3,7.3,19.1,0,26.4L358,708.6l53.3,60.4c6.8,7.7,6.1,19.5-1.7,26.3C406.1,798.4,401.6,800,397.3,800z"/>
		<path class="st3" d="M554.7,800c-4.8,0-9.6-1.8-13.2-5.5c-7.3-7.3-7.3-19.1,0-26.4l61.1-61.1l-53.3-60.4
			c-6.8-7.7-6.1-19.5,1.7-26.3c7.7-6.8,19.5-6.1,26.3,1.7l64.9,73.5c6.5,7.4,6.2,18.6-0.8,25.5l-73.5,73.5
			C564.3,798.2,559.5,800,554.7,800z"/>
	</g>
	<g>
		<g class="st4">
			<linearGradient id="SVGID_3_" gradientUnits="userSpaceOnUse" x1="620.8588" y1="184.2741" x2="620.8588" y2="666.8101">
				<stop  offset="0" style="stop-color:#39C2FF"/>
				<stop  offset="1" style="stop-color:#236FFB;stop-opacity:0"/>
			</linearGradient>
			<path class="st5" d="M274.7,614.8c0,23.9,19.3,43.2,43.2,43.2h605.9c23.9,0,43.2-19.3,43.2-43.2V314.6H274.7V614.8z"/>
			<linearGradient id="SVGID_4_" gradientUnits="userSpaceOnUse" x1="620.8588" y1="184.2741" x2="620.8588" y2="666.8101">
				<stop  offset="0" style="stop-color:#39C2FF"/>
				<stop  offset="1" style="stop-color:#236FFB;stop-opacity:0"/>
			</linearGradient>
			<path class="st6" d="M923.8,180H317.9c-23.9,0-43.2,19.3-43.2,43.2v59.7H967v-59.7C967,199.3,947.6,180,923.8,180z"/>
		</g>
		<circle class="st7" cx="343.1" cy="236.3" r="21.7"/>
		<circle class="st7" cx="403.2" cy="236.3" r="21.7"/>
		<circle class="st7" cx="461.8" cy="236.3" r="21.7"/>
	</g>
	<g>
		
			<linearGradient id="SVGID_5_" gradientUnits="userSpaceOnUse" x1="499.0216" y1="288.8758" x2="322.3272" y2="473.5414" gradientTransform="matrix(1.1591 0.129 0.129 1.1591 -346.6596 -262.3566)">
			<stop  offset="0" style="stop-color:#236FFB"/>
			<stop  offset="1" style="stop-color:#236FFB;stop-opacity:0"/>
		</linearGradient>
		<polygon class="st8" points="283.2,170.3 108.9,344.7 66.5,302.3 240.9,128 		"/>
		
			<rect x="210.7" y="140.6" transform="matrix(0.7071 -0.7071 0.7071 0.7071 -50.1186 220.1292)" class="st9" width="59.9" height="59.9"/>
	</g>
</g>
</svg>
